HIERARCHY
ROOT hip
{
	OFFSET 0.000000 0.000000 0.000000
	CHANNELS 6 Xposition Yposition Zposition Xrotation Zrotation Yrotation 
	JOINT abdomen
	{
		OFFSET 0.000000 3.422050 0.000000
		CHANNELS 3 Xrotation Zrotation Yrotation 
		JOINT chest
		{
			OFFSET 0.000000 8.486693 -0.684411
			CHANNELS 3 Xrotation Zrotation Yrotation 
			JOINT neck
			{
				OFFSET 0.000000 10.266162 -0.273764
				CHANNELS 3 Xrotation Zrotation Yrotation 
				JOINT head
				{
					OFFSET 0.000000 3.148285 0.000000
					CHANNELS 3 Xrotation Zrotation Yrotation 
					End Site
					{
						OFFSET 0.000000 3.148289 0.000000
					}
				}
			}
			JOINT lCollar
			{
				OFFSET 3.422053 6.707223 -0.821293
				CHANNELS 3 Yrotation Zrotation Xrotation 
				JOINT lShldr
				{
					OFFSET 3.285171 0.000000 0.000000
					CHANNELS 3 Zrotation Yrotation Xrotation 
					JOINT lForeArm
					{
						OFFSET 10.129278 0.000000 0.000000
						CHANNELS 3 Yrotation Zrotation Xrotation 
						JOINT lHand
						{
							OFFSET 8.486692 0.000000 0.000000
							CHANNELS 3 Zrotation Yrotation Xrotation 
							End Site
							{
								OFFSET 4.106464 0.000000 0.000000
							}
						}
					}
				}
			}
			JOINT rCollar
			{
				OFFSET -3.558935 6.707223 -0.821293
				CHANNELS 3 Yrotation Zrotation Xrotation 
				JOINT rShldr
				{
					OFFSET -3.148289 0.000000 0.000000
					CHANNELS 3 Zrotation Yrotation Xrotation 
					JOINT rForeArm
					{
						OFFSET -10.266159 0.000000 0.000000
						CHANNELS 3 Yrotation Zrotation Xrotation 
						JOINT rHand
						{
							OFFSET -8.349810 0.000000 0.000000
							CHANNELS 3 Zrotation Yrotation Xrotation 
							End Site
							{
								OFFSET -4.106464 0.000000 0.000000
							}
						}
					}
				}
			}
		}
	}
	JOINT lThigh
	{
		OFFSET 5.338403 -1.642589 1.368821
		CHANNELS 3 Xrotation Zrotation Yrotation 
		JOINT lShin
		{
			OFFSET -2.053232 -20.121670 0.000000
			CHANNELS 3 Xrotation Zrotation Yrotation 
			JOINT lFoot
			{
				OFFSET 0.000000 -19.300380 -1.231939
				CHANNELS 3 Xrotation Yrotation Zrotation 
				End Site
				{
					OFFSET 0.000000 -2.463878 4.653993
				}
			}
		}
	}
	JOINT rThigh
	{
		OFFSET -5.338403 -1.642589 1.368821
		CHANNELS 3 Xrotation Zrotation Yrotation 
		JOINT rShin
		{
			OFFSET 2.053232 -20.121670 0.000000
			CHANNELS 3 Xrotation Zrotation Yrotation 
			JOINT rFoot
			{
				OFFSET 0.000000 -19.300380 -1.231939
				CHANNELS 3 Xrotation Yrotation Zrotation 
				End Site
				{
					OFFSET 0.000000 -2.463878 4.653993
				}
			}
		}
	}
}
MOTION
Frames: 15
Frame Time: 0.049897
0.000000 43.528500 0.000000 0.000000 0.000000 0.000000 0.000000 0.000000 0.000000 0.000000 0.000000 0.000000 0.000000 0.000000 0.000000 0.000000 0.000000 0.000000 0.000000 0.000000 0.000000 0.000000 0.000000 0.000000 0.000000 0.000000 0.000000 0.000000 0.000000 0.000000 0.000000 0.000000 0.000000 0.000000 0.000000 0.000000 0.000000 0.000000 0.000000 0.000000 0.000000 0.000000 0.000000 0.000000 0.000000 0.000000 0.000000 0.000000 0.000000 0.000000 0.000000 0.000000 0.000000 0.000000 0.000000 0.000000 0.000000 0.000000 0.000000 0.000000 
19.995884 5.648346 0.952190 -98.002960 0.000000 0.000000 12.402251 -0.059595 -0.050446 -7.927963 -0.190627 -0.752747 39.997601 0.000000 0.000000 8.998567 0.000000 0.000000 2.308587 -18.282129 8.056284 -45.896294 -25.266138 -14.193853 -28.673971 -24.459122 32.786545 -8.197727 5.365050 4.314580 -2.311924 18.278343 8.056708 45.892056 25.262350 -14.196095 28.670942 24.454693 32.787842 8.194096 -5.368394 4.314506 -14.240563 6.838301 29.773157 53.226402 25.898350 5.712568 20.376530 -8.631516 -14.285374 -14.239488 -6.842126 -29.776440 53.227974 -25.899939 -5.717782 20.377132 8.627469 14.282425 
19.995884 5.701078 0.952190 -98.613449 0.000000 0.000000 13.123187 -0.059534 -0.050473 -7.207037 -0.190532 -0.752729 39.532867 0.000000 0.000000 8.547998 0.000000 0.000000 3.001927 -17.333584 8.169068 -46.352333 -25.258114 -13.912523 -30.925339 -25.884403 31.527880 -7.487557 6.358980 4.187362 -2.937493 17.391260 8.123604 46.344242 25.250715 -13.917757 30.860386 25.853455 31.569889 7.541876 -6.339284 4.215596 -13.481916 6.634853 29.484213 53.226402 25.898350 5.712568 20.379223 -8.386891 -14.563241 -13.476432 -6.688599 -29.559269 53.227974 -25.899939 -5.717782 20.365862 8.441507 14.498431 
19.995884 5.753811 0.952190 -99.224197 0.000000 0.000000 13.844582 -0.059473 -0.050499 -6.485655 -0.190438 -0.752710 39.067612 0.000000 0.000000 8.096960 0.000000 0.000000 3.690980 -16.382236 8.269469 -46.808392 -25.248060 -13.631230 -33.244717 -27.266443 30.188419 -6.776797 7.356273 4.072102 -3.559916 16.502277 8.180153 46.796398 25.237085 -13.639496 33.114384 27.211523 30.275015 6.888910 -7.312896 4.127493 -12.721843 6.435037 29.192413 53.226402 25.898350 5.712568 20.383108 -8.142242 -14.840990 -12.712384 -6.537831 -29.339941 53.227978 -25.899940 -5.717783 20.355305 8.255488 14.714319 
19.995884 5.806544 0.952190 -99.835197 0.000000 0.000000 14.566381 -0.059411 -0.050525 -5.763872 -0.190343 -0.752689 38.601860 0.000000 0.000000 7.645467 0.000000 0.000000 4.376039 -15.428432 8.357640 -47.264431 -25.235981 -13.350011 -35.633049 -28.600056 28.767357 -6.065186 8.356556 3.968919 -4.179420 15.611646 8.226469 47.248516 25.221472 -13.361344 35.433876 28.524099 28.902414 6.234954 -8.288903 4.050297 -11.960441 6.238934 28.897861 53.226402 25.898350 5.712568 20.388197 -7.897581 -15.118632 -11.947415 -6.389873 -29.118504 53.227974 -25.899939 -5.717782 20.345463 8.069417 14.930096 
19.995884 5.859277 0.952190 -100.446426 0.000000 0.000000 15.288516 -0.059349 -0.050550 -5.041744 -0.190249 -0.752668 38.135628 0.000000 0.000000 7.193533 0.000000 0.000000 5.057384 -14.472493 8.433724 -47.720421 -25.221870 -13.068885 -38.090630 -29.880005 27.264454 -5.352453 9.359446 3.877932 -4.796233 14.719640 8.262666 47.700550 25.203869 -13.083337 37.819241 29.786333 27.451756 5.579765 -9.266976 3.984109 -11.197782 6.046606 28.600607 53.226402 25.898350 5.712568 20.394482 -7.652916 -15.396173 -11.181609 -6.244776 -28.895023 53.227974 -25.899937 -5.717781 20.336329 7.883294 15.145752 
19.995884 5.912009 0.952190 -101.057808 0.000000 0.000000 16.010946 -0.059286 -0.050574 -4.319329 -0.190156 -0.752645 37.668919 0.000000 0.000000 6.741171 0.000000 0.000000 5.735294 -13.514753 8.497856 -48.176346 -25.205742 -12.787893 -40.617111 -31.101154 25.680231 -4.638326 10.364565 3.799271 -5.410572 13.826515 8.288849 48.152489 25.184286 -12.805490 40.270306 30.993444 25.923376 4.923093 -10.246784 3.929043 -10.433953 5.858124 28.300734 53.226402 25.898348 5.712567 20.401955 -7.408257 -15.673609 -10.415042 -6.102588 -28.669556 53.227974 -25.899939 -5.717782 20.327908 7.697127 15.361296 
19.995884 5.964742 0.952190 -101.669327 0.000000 0.000000 16.733603 -0.059223 -0.050597 -3.596684 -0.190062 -0.752621 37.201752 0.000000 0.000000 6.288394 0.000000 0.000000 6.410047 -12.555552 8.550165 -48.632145 -25.187580 -12.507060 -43.211292 -32.258415 24.015955 -3.922520 11.371521 3.733072 -6.022654 12.932535 8.305115 48.604267 25.162708 -12.527841 42.786163 32.140728 24.318298 4.264684 -11.227996 3.885217 -9.669043 5.673552 27.998322 53.226402 25.898350 5.712568 20.410620 -7.163619 -15.950954 -9.647788 -5.963350 -28.442146 53.227974 -25.899939 -5.717782 20.320196 7.510922 15.576732 
19.995884 6.017475 0.952190 -102.280960 0.000000 0.000000 17.456434 -0.059160 -0.050620 -2.873866 -0.189969 -0.752596 36.734154 0.000000 0.000000 5.835213 0.000000 0.000000 7.081909 -11.595222 8.590775 -49.087822 -25.167406 -12.226421 -45.871136 -33.346954 22.273840 -3.204746 12.379928 3.679478 -6.632689 12.037953 8.311560 49.055889 25.139151 -12.250419 45.365070 33.223621 22.638344 3.604271 -12.210269 3.852757 -8.903138 5.492955 27.693453 53.226402 25.898350 5.712568 20.420471 -6.919006 -16.228201 -8.879933 -5.827115 -28.212877 53.227974 -25.899939 -5.717782 20.313192 7.324683 15.792058 
19.995884 6.070208 0.952190 -102.892662 0.000000 0.000000 18.179375 -0.059097 -0.050641 -2.150933 -0.189876 -0.752569 36.266121 0.000000 0.000000 5.381647 0.000000 0.000000 7.751145 -10.634090 8.619802 -49.543331 -25.145206 -11.945996 -48.033806 -34.774059 21.101915 -2.484704 13.389388 3.638639 -7.240889 11.143040 8.308276 49.507320 25.113619 -11.973251 47.469650 34.624973 21.503197 2.941587 -13.193264 3.831793 -8.136327 5.316391 27.386206 53.226402 25.898350 5.712568 20.431513 -6.674436 -16.505362 -8.111557 -5.693920 -27.981798 53.227978 -25.899940 -5.717783 20.306896 7.138413 16.007278 
19.995884 6.122940 0.952190 -103.504402 0.000000 0.000000 18.902376 -0.059033 -0.050662 -1.427942 -0.189783 -0.752542 35.797672 0.000000 0.000000 4.927704 0.000000 0.000000 8.418020 -9.672491 8.637353 -49.998642 -25.120996 -11.665830 -50.275848 -36.166164 19.840311 -1.762087 14.399510 3.610718 -7.847457 10.248049 8.295345 49.958511 25.086105 -11.696369 49.649517 35.993290 20.282757 2.276357 -14.176645 3.822469 -7.368702 5.143918 27.076664 53.226402 25.898350 5.712568 20.443743 -6.429918 -16.782450 -7.342736 -5.563807 -27.748968 53.227978 -25.899940 -5.717781 20.301310 6.952120 16.222395 
19.995884 6.175673 0.952190 -104.116135 0.000000 0.000000 19.625383 -0.058969 -0.050682 -0.704952 -0.189691 -0.752513 35.328838 0.000000 0.000000 4.473404 0.000000 0.000000 9.082788 -8.710757 8.643534 -50.453705 -25.094759 -11.385931 -52.600330 -37.518414 18.485966 -1.036581 15.409894 3.595881 -8.452598 9.353243 8.272849 50.409447 25.056620 -11.419795 51.907555 37.324070 18.974140 1.608297 -15.160065 3.824932 -6.600354 4.975592 26.764908 53.226402 25.898350 5.712568 20.457150 -6.185458 -17.059446 -6.573558 -5.436814 -27.514460 53.227974 -25.899937 -5.717782 20.296429 6.765807 16.437407 
19.995884 6.228405 0.952190 -104.727844 0.000000 0.000000 20.348324 -0.058905 -0.050702 0.017981 -0.189599 -0.752483 34.859619 0.000000 0.000000 4.018757 0.000000 0.000000 9.745700 -7.749218 8.638441 -50.908524 -25.066521 -11.106348 -55.009926 -38.825809 17.036247 -0.307865 16.420139 3.594306 -9.056504 8.458881 8.240860 50.860111 25.025169 -11.143568 54.246346 38.612690 17.574820 0.937118 -16.143179 3.839339 -5.831378 4.811466 26.451025 53.226402 25.898348 5.712567 20.471743 -5.941073 -17.336378 -5.804103 -5.312981 -27.278328 53.227974 -25.899939 -5.717782 20.292248 6.579477 16.652315 
19.995884 6.281138 0.952190 -105.339462 0.000000 0.000000 21.071152 -0.058841 -0.050720 0.740799 -0.189507 -0.752452 34.390034 0.000000 0.000000 3.563777 0.000000 0.000000 10.407009 -6.788201 8.622167 -51.363052 -25.036278 -10.827100 -57.506744 -40.083233 15.489062 0.424397 17.429842 3.606179 -9.659375 7.565219 8.199450 51.310444 24.991747 -10.867702 56.667946 39.854382 16.082747 0.262520 -17.125639 3.865855 -5.061870 4.651592 26.135117 53.226402 25.898350 5.712568 20.487511 -5.696769 -17.613234 -5.034459 -5.192343 -27.040651 53.227974 -25.899939 -5.717782 20.288782 6.393141 16.867134 
19.995884 6.333871 0.952190 -105.950996 0.000000 0.000000 21.793808 -0.058776 -0.050738 1.463444 -0.189416 -0.752420 33.920094 0.000000 0.000000 3.108479 0.000000 0.000000 11.066953 -5.828033 8.594794 -51.817257 -25.004026 -10.548221 -60.092197 -41.285488 13.843048 1.160543 18.438606 3.631700 -10.261399 6.672517 8.148686 51.760426 24.956364 -10.592239 59.173824 41.044342 14.496505 -0.415797 -18.107094 3.904652 -4.291926 4.496014 25.817255 53.226402 25.898350 5.712568 20.504459 -5.452560 -17.890028 -4.264706 -5.074931 -26.801481 53.227974 -25.899939 -5.717782 20.286015 6.206798 17.081848 
